<?xml version="1.0"?><svg width="519" height="476.115" xmlns="http://www.w3.org/2000/svg">

 <metadata id="metadata4">image/svg+xml</metadata>
 <g>
  <title>Layer 1</title>
  <g id="layer1">
   <path d="m0,0l0,476.11499l519,0l0,-476.11499l-225.640015,0c-6.942993,12.521004 -20.287994,21.004997 -35.609985,21.004997c-15.321991,0 -28.667999,-8.483994 -35.610992,-21.004997l-222.139008,0zm28.006699,25.381004l16.628998,0c3.394104,0 6.126503,2.732986 6.126503,6.126999l0,28.881989c0,3.394012 -2.732399,6.126007 -6.126503,6.126007l-16.628998,0c-3.393997,0 -6.1264,-2.731995 -6.1264,-6.126007l0,-28.881989c0,-3.394012 2.732403,-6.126999 6.1264,-6.126999zm65.1483,0l16.628998,0c3.393997,0 6.126999,2.732986 6.126999,6.126999l0,28.881989c0,3.394012 -2.733002,6.126007 -6.126999,6.126007l-16.628998,0c-3.393997,0 -6.125992,-2.731995 -6.125992,-6.126007l0,-28.881989c0,-3.394012 2.731995,-6.126999 6.125992,-6.126999zm65.121002,0l16.628998,0c3.393997,0 6.126999,2.732986 6.126999,6.126999l0,28.881989c0,3.394012 -2.733002,6.126007 -6.126999,6.126007l-16.628998,0c-3.393997,0 -6.126007,-2.731995 -6.126007,-6.126007l0,-28.881989c0,-3.394012 2.73201,-6.126999 6.126007,-6.126999zm65.148987,0l16.628998,0c3.394012,0 6.126007,2.732986 6.126007,6.126999l0,28.881989c0,3.394012 -2.731995,6.126007 -6.126007,6.126007l-16.628998,0c-3.393982,0 -6.126984,-2.731995 -6.126984,-6.126007l0,-28.881989c0,-3.394012 2.733002,-6.126999 6.126984,-6.126999zm65.14801,0l16.628998,0c3.394012,0 6.127014,2.732986 6.127014,6.126999l0,28.881989c0,3.394012 -2.733002,6.126007 -6.127014,6.126007l-16.628998,0c-3.394012,0 -6.126007,-2.731995 -6.126007,-6.126007l0,-28.881989c0,-3.394012 2.731995,-6.126999 6.126007,-6.126999zm65.148987,0l16.629028,0c3.393982,0 6.125977,2.732986 6.125977,6.126999l0,28.881989c0,3.394012 -2.731995,6.126007 -6.125977,6.126007l-16.629028,0c-3.393982,0 -6.126984,-2.731995 -6.126984,-6.126007l0,-28.881989c0,-3.394012 2.733002,-6.126999 6.126984,-6.126999zm65.121002,0l16.628998,0c3.394012,0 6.127014,2.732986 6.127014,6.126999l0,28.881989c0,3.394012 -2.733002,6.126007 -6.127014,6.126007l-16.628998,0c-3.393982,0 -6.125977,-2.731995 -6.125977,-6.126007l0,-28.881989c0,-3.394012 2.731995,-6.126999 6.125977,-6.126999zm65.149017,0l16.628967,0c3.394043,0 6.126038,2.732986 6.126038,6.126999l0,28.881989c0,3.394012 -2.731995,6.126007 -6.126038,6.126007l-16.628967,0c-3.39502,0 -6.127014,-2.731995 -6.127014,-6.126007l0,-28.881989c0,-3.394012 2.731995,-6.126999 6.127014,-6.126999zm-460.361305,49.011993l471.738319,0c6.787964,0 12.252991,5.464996 12.252991,12.253006l0,300.196983c0,6.789032 -5.465027,12.253021 -12.252991,12.253021l-471.738319,0c-6.788097,0 -12.252998,-5.463989 -12.252998,-12.253021l0,-300.196983c0,-6.78801 5.464901,-12.253006 12.252998,-12.253006zm3.500801,334.331001l16.628998,0c3.394104,0 6.126503,2.731995 6.126503,6.125977l0,28.882019c0,3.393982 -2.732399,6.127014 -6.126503,6.127014l-16.628998,0c-3.393997,0 -6.1264,-2.733032 -6.1264,-6.127014l0,-28.882019c0,-3.393982 2.732403,-6.125977 6.1264,-6.125977zm65.148499,0l16.628998,0c3.393997,0 6.126999,2.731995 6.126999,6.125977l0,28.882019c0,3.393982 -2.733002,6.127014 -6.126999,6.127014l-16.628998,0c-3.393997,0 -6.125992,-2.733032 -6.125992,-6.127014l0,-28.882019c0,-3.393982 2.731995,-6.125977 6.125992,-6.125977zm65.121002,0l16.628998,0c3.393997,0 6.126999,2.731995 6.126999,6.125977l0,28.882019c0,3.393982 -2.733002,6.127014 -6.126999,6.127014l-16.628998,0c-3.393997,0 -6.126007,-2.733032 -6.126007,-6.127014l0,-28.882019c0,-3.393982 2.73201,-6.125977 6.126007,-6.125977zm65.148987,0l16.628998,0c3.394012,0 6.126007,2.731995 6.126007,6.125977l0,28.882019c0,3.393982 -2.731995,6.127014 -6.126007,6.127014l-16.628998,0c-3.393982,0 -6.126984,-2.733032 -6.126984,-6.127014l0,-28.882019c0,-3.393982 2.733002,-6.125977 6.126984,-6.125977zm65.14801,0l16.628998,0c3.394012,0 6.127014,2.731995 6.127014,6.125977l0,28.882019c0,3.393982 -2.733002,6.127014 -6.127014,6.127014l-16.628998,0c-3.394012,0 -6.126007,-2.733032 -6.126007,-6.127014l0,-28.882019c0,-3.393982 2.731995,-6.125977 6.126007,-6.125977zm65.148987,0l16.629028,0c3.393982,0 6.125977,2.731995 6.125977,6.125977l0,28.882019c0,3.393982 -2.731995,6.127014 -6.125977,6.127014l-16.629028,0c-3.393982,0 -6.126984,-2.733032 -6.126984,-6.127014l0,-28.882019c0,-3.393982 2.733002,-6.125977 6.126984,-6.125977zm65.121002,0l16.628998,0c3.394012,0 6.126007,2.731995 6.126007,6.125977l0,28.882019c0,3.393982 -2.731995,6.127014 -6.126007,6.127014l-16.628998,0c-3.393982,0 -6.126984,-2.733032 -6.126984,-6.127014l0,-28.882019c0,-3.393982 2.733002,-6.125977 6.126984,-6.125977zm65.148041,0l16.628967,0c3.393982,0 6.127014,2.731995 6.127014,6.125977l0,28.882019c0,3.393982 -2.733032,6.127014 -6.127014,6.127014l-16.628967,0c-3.394043,0 -6.126038,-2.733032 -6.126038,-6.127014l0,-28.882019c0,-3.393982 2.731995,-6.125977 6.126038,-6.125977z" id="path7732"/>
   <path d="m168.723999,0l0,0.055l-0.054001,0l0,12.061996l-5.552994,0l0,-12.061996l-6.208008,0l0,25.490997c0.44101,-0.100998 0.895004,-0.164993 1.367004,-0.164993l16.628998,0c2.598999,0 4.796005,1.610001 5.688995,3.883987l0.219009,0l5.87999,0l0,-29.264992l-6.207993,0l0,11.678993l-5.552002,0l0,-11.678993l-6.209,0zm128.218994,0l0,25.381004l8.259003,0c2.621002,0 4.838013,1.633987 5.71701,3.938995l3.992981,0l0,-29.32l-6.208984,0l0,11.734001l-5.552002,0l0,-11.734001l-6.208008,0zm-296.669495,0.055l0,12.007004l6.181202,0l0,-12.007004l-6.181202,0zm32.793098,0l0,25.326004l11.569099,0c2.766907,0 5.087402,1.811996 5.853004,4.321991l0.546997,0l0,-29.647995l-6.208496,0l0,12.061996l-5.552101,0l0,-12.061996l-6.208504,0zm434.569389,0l0,12.007004l6.18103,0l0,-12.007004l-6.18103,0zm32.79303,0l0,25.326004l0.191956,0c2.766052,0 5.087036,1.811996 5.853027,4.321991l0.164001,0l5.880005,0l5.880005,0l0,-29.647995l-6.208008,0l0,12.061996l-5.552002,0l0,-12.061996l-6.208984,0zm-487.464916,0.300995l0,11.761002l-6.208599,0l0,17.585999l6.208599,0l0,-17.313004l6.181099,0l0,17.641006l2.926502,0c0.441299,-1.791 1.655602,-3.268005 3.282097,-4.048004l0,-25.626999l-6.208599,0l-6.181099,0zm467.362926,0l0,11.761002l-6.209045,0l0,17.585999l4.020996,0c0.384033,-1.261993 1.156006,-2.349991 2.188049,-3.117996l0,-14.195007l6.180969,0l0,12.991013l6.208008,0l0,-25.025009l-6.208008,0l-6.180969,0zm-266.858032,0.027l0,12.034004l6.209015,0l0,-12.034004l-6.209015,0zm174.113007,2.708c-3.312988,0.281006 -5.052002,3.910004 -4.895996,7.001999c-0.341003,3.429001 1.113007,8.150009 5.388,7.684998c4.571991,-0.289993 5.569,-7.715988 1.47699,-9.435989c-1.421997,-0.882004 -5.276001,1.423996 -3.609985,-1.668007c1.072998,-2.799995 5.981995,0.719002 5.250977,-2.980995c-0.918976,-0.409004 -1.921997,-0.622002 -2.926971,-0.602005c-0.235016,-0.012001 -0.463013,-0.018997 -0.683014,0zm9.48999,0.082001c-0.884003,0.035004 -1.77298,0.280998 -2.542999,0.737999c-1.027985,4.840004 3.255005,-0.048996 4.923004,2.845009c1.317017,2.050995 1.235016,4.901993 0.328003,7.084c-0.949005,3.427994 -5.346008,-0.873001 -5.333008,2.35199c0.763,2.649002 4.614014,1.768997 6.372009,0.656006c2.700989,-2.152008 2.917999,-6.207001 2.105988,-9.326004c-0.440002,-2.773994 -3.198975,-4.454994 -5.852997,-4.348999zm-283.15799,2.133003c-1.012009,0.030998 -2.016006,0.297997 -2.790009,0.958c-1.934998,1.550003 -2.155991,5.076996 0.082001,6.453995c-0.195999,0.783005 -1.368988,2.192001 -1.120987,3.473999c-0.108002,2.039001 1.622986,3.867004 3.638,3.938004c1.689987,0.386002 3.528,-0.544998 4.265991,-2.106003c1.011002,-1.685989 0.335999,-4.35199 -1.694992,-4.867996c0.977997,-0.214005 1.75,-0.985001 2.187988,-1.860001c1.257004,-2.268997 -0.436996,-5.138 -2.763,-5.825996c-0.567993,-0.133003 -1.196991,-0.182007 -1.804993,-0.164001zm-34.488998,0.055l0,3.610001l-17.285004,0l0,5.688995l17.285004,0l0,3.610001l5.579994,-3.227005l5.579002,-3.22699l-5.579002,-3.227997l-5.579994,-3.227005zm48.028,0.027c-0.460007,-0.003006 -0.923996,0.086998 -1.341003,0.273994c-2.130997,-0.452995 -4.529999,0.782005 -5.251007,2.872009c-0.375992,1.172989 -0.356995,2.814987 0.821014,3.528c1.245987,0.375992 1.21199,1.83699 0.245987,2.515991c-1.362991,1.094009 -0.78299,3.287003 0.492004,4.212006c2.395996,1.610992 5.380005,0.834 8.068008,1.011993c0.038986,-2.147995 -0.020004,-4.306992 -0.027008,-6.455002c-0.227005,-1.901993 0.591003,-3.812988 0.055008,-5.688995c-0.290009,-1.425003 -1.686005,-2.260002 -3.063004,-2.269997zm-13.402008,2.243004c0.772003,-0.018005 1.552002,0.366989 1.887009,1.175995c0.860001,1.293991 -0.041,3.367996 -1.695999,3.173004c-1.574005,0.177002 -2.518005,-1.685013 -1.942001,-3.009003c0.22699,-0.891006 0.979004,-1.320999 1.750992,-1.339996zm11.460007,0.136993c2.069,-0.048996 3.138992,2.634995 2.296997,4.320999c-1.078003,0.404999 -2.384003,0.276001 -3.309006,-0.436996c-1.672989,-1.048004 -0.886993,-3.737 1.012009,-3.884003zm159.616013,2.625c-0.302002,0.276001 -0.620026,0.528 -0.930023,0.794006l0,16c1.110016,-1.124008 2.665009,-1.806 4.376007,-1.806l1.833008,0l0,-14.988007l-5.278992,0zm102.426971,0.082993c2.197021,0.160004 2.550018,3.670013 0.958008,4.813004c-3.143982,1.617004 -4.143005,-4.55899 -0.958008,-4.813004zm-193.502991,1.230011l0,17.613998l6.208008,0l0,-17.613998l-6.208008,0zm12.882004,0l0,17.613998l6.208008,0l0,-17.613998l-6.208008,0zm12.882004,0l0,14.85199c1.011993,-0.73999 2.255005,-1.176987 3.609985,-1.176987l2.598022,0l0,-13.675003l-6.208008,0zm12.881989,0.628998l0,13.046005l6.208008,0l0,-9.025009c-2.196991,-1.151993 -4.270996,-2.501999 -6.208008,-4.020996zm-106.584991,1.860001c1.576996,0.018005 2.656006,2.046997 1.695999,3.363998c-0.914001,0.246994 -1.942001,0.194 -2.789993,-0.246002c-1.804001,-0.647995 -0.92601,-3.108994 0.765991,-3.091003c0.109009,-0.016998 0.223007,-0.028 0.328003,-0.026993zm-11.923996,0.082001c0.908997,-0.128998 1.912003,0.707001 1.804993,1.722992c0.164001,1.358002 -1.422989,2.072006 -2.543991,1.669006c-1.421005,-0.360001 -1.059998,-2.231995 -0.082001,-2.899002c0.235992,-0.287003 0.51799,-0.449997 0.820999,-0.492996zm163.335983,1.58699c-1.977997,1.104004 -4.04599,2.05101 -6.208984,2.817001l0,10.201004l6.208984,0l0,-13.018005zm-31.944977,3.282013l0,9.735992l6.181,0l0,-8.313995c-2.115997,-0.313004 -4.184998,-0.796997 -6.181,-1.421997zm19.062988,1.284988c-2.01001,0.343002 -4.082001,0.53801 -6.181,0.574005l0,7.876999l6.181,0l0,-8.451004z" id="rect7548"/>
   <path d="m0,34.133995l0,19.253998l21.880299,0l0,-19.253998l-21.880299,0zm50.762199,0l0,19.253998l36.266808,0l0,-19.253998l-36.266808,0zm65.148796,0l0,19.253998l36.238998,0l0,-19.253998l-36.238998,0zm65.121002,0l0,19.253998l36.266006,0l0,-19.253998l-36.266006,0zm65.147995,0l0,19.253998l36.266998,0l0,-19.253998l-36.266998,0zm65.149017,0l0,19.253998l36.265991,0l0,-19.253998l-36.265991,0zm65.14798,0l0,19.253998l36.240021,0l0,-19.253998l-36.240021,0zm65.122009,0l0,19.253998l36.265991,0l0,-19.253998l-36.265991,0zm65.14801,0l0,19.253998l12.252991,0l0,-19.253998l-12.252991,0z" id="path7579"/>
   <path d="m0,417.338989l0,19.802002l21.0051,0l0,-19.802002l-21.0051,0zm49.887001,0l0,19.802002l36.267006,0l0,-19.802002l-36.267006,0zm65.148994,0l0,19.802002l36.238998,0l0,-19.802002l-36.238998,0zm65.121002,0l0,19.802002l36.266006,0l0,-19.802002l-36.266006,0zm65.147995,0l0,19.802002l36.266998,0l0,-19.802002l-36.266998,0zm65.149017,0l0,19.802002l36.265991,0l0,-19.802002l-36.265991,0zm65.14798,0l0,19.802002l36.239014,0l0,-19.802002l-36.239014,0zm65.121002,0l0,19.802002l36.266998,0l0,-19.802002l-36.266998,0zm65.149017,0l0,19.802002l13.127991,0l0,-19.802002l-13.127991,0z" id="rect7737"/>
   <rect height="2.82843" width="0" y="652.502" x="312.26" id="rect7739"/>
   <path d="m4.293999,453.85199l0,22.263l12.3624,0l0,-22.263l-12.3624,0zm17.941803,0l0,22.263l8.041,0l0,-22.263l-8.041,0zm120.068199,0l0,22.263l12.362,0l0,-22.263l-12.362,0zm17.942001,0l0,22.263l8.041,0l0,-22.263l-8.041,0zm12.634995,0l0,22.263l8.041,0l0,-22.263l-8.041,0zm166.291,0l0,22.263l8.041016,0l0,-22.263l-8.041016,0zm12.252014,0l0,22.263l8.040985,0l0,-22.263l-8.040985,0zm11.815979,0l0,22.263l12.362,0l0,-22.263l-12.362,0zm30.195007,0l0,22.263l8.041016,0l0,-22.263l-8.041016,0zm12.252991,0l0,22.263l8.041016,0l0,-22.263l-8.041016,0zm12.252014,0l0,22.263l8.041992,0l0,-22.263l-8.041992,0zm68.266968,0l0,22.263l8.041016,0l0,-22.263l-8.041016,0zm13.183044,0l0,22.263l12.362,0l0,-22.263l-12.362,0z" id="rect7744"/>
   <path d="m106.520996,461.835999c1.432007,0.119019 2.427002,-1.614014 1.867004,-2.864014c-0.494995,-1.385986 -2.647995,-1.731995 -3.468002,-0.458984c-0.798996,1.083008 -0.358994,2.997009 1.069,3.268982c0.173996,0.041992 0.352997,0.059998 0.531998,0.054016m1.964005,1.120972c1.781006,0.470032 2.544998,2.697998 1.854004,4.30603c-0.528,1.380981 -1.990005,2.221008 -3.434998,2.227966c-1.711014,0.176025 -3.731003,-0.609985 -4.258011,-2.383972c-0.51799,-1.470032 0.028,-3.43103 1.570007,-4.028015c0.227997,-0.469971 -1.054001,-0.442993 -1.182007,-1.023987c-1.644989,-1.804016 -0.996994,-5.197998 1.332001,-6.09198c1.860001,-0.625 4.240005,-0.567993 5.645004,0.971985c1.365005,1.622986 1.203003,4.494019 -0.679001,5.659973c-0.264008,0.15802 -0.550003,0.280029 -0.847,0.362zm-0.278,2.718018c0.177002,-1.380005 -1.716995,-2.281006 -2.746994,-1.411011c-1.039001,0.772034 -0.797012,2.75 0.539993,3.044006c1.033997,0.34198 2.337006,-0.479004 2.207001,-1.632996zm-10.888,-3.731018c0,-1.32196 0,-2.643005 0,-3.964966c-1.184998,0.098999 -2.557007,-0.296021 -3.570999,0.503967c-0.705994,0.829041 -0.637009,2.237 0.119995,3.002014c0.99501,0.747986 2.307007,0.361023 3.451004,0.458984zm0,5.218994c-0.214996,-0.982971 0.375,-2.082947 -0.214005,-2.980957c-0.921997,-0.196045 -2.179993,-0.328003 -3.022003,0.304993c-0.811996,0.809998 -0.343994,2.586975 0.893005,2.630981c0.777008,0.104004 1.561996,0.010986 2.343002,0.044983zm2.556,2.108032c-2.311996,-0.119019 -4.707001,0.320007 -6.947998,-0.426025c-1.197006,-0.492981 -1.975006,-1.771973 -1.867004,-3.060974c-0.011002,-1.237 0.837997,-2.569031 2.152008,-2.674011c0.315994,-0.291992 -0.924011,-0.184021 -1.129013,-0.539001c-1.148987,-0.688965 -1.62999,-2.096985 -1.48999,-3.382019c0.052002,-1.300964 0.854996,-2.664001 2.197998,-2.951965c2.132996,-0.692993 4.393005,-0.194031 6.580002,-0.416992c1.097,0.513977 0.214996,1.988953 0.503998,2.921997c0,3.508972 0,7.018982 0,10.528992z" id="flowRoot7771"/>
   <path d="m299.862,468.377991c-2.951996,0.541992 -2.220001,-3.580994 -4.088989,-4.64502c-2.727997,-0.664978 -1.571014,4.863037 -4.193024,3.774048c-1.714996,-1.708008 -0.176971,-4.008057 -0.208984,-6.002014c-0.01001,-1.892029 -0.583008,-3.855042 0.105011,-5.692993c2.138977,-1.618042 3.571991,2.135986 2.310974,3.562988c0.747009,2.724976 4.989014,0.320984 2.934998,-1.69104c-0.154999,-2.934998 4.488007,-2.065979 3.226013,0.664001c-0.110992,2.824036 -0.338989,5.652039 -0.078003,8.473999c0.006012,0.519043 0.005005,1.037048 -0.007996,1.55603zm-19.667999,-13.390015c2.779999,0 5.561005,0 8.341003,0c0,4.463013 0,8.926025 0,13.390015c-2.779999,0 -5.561005,0 -8.341003,0c-0.130005,-2.947998 3.819,-1.879028 5.178986,-3.317993c0.966003,-3.093018 -4.721985,-1.033997 -3.948975,-3.437012c1.099976,-1.708984 5.019989,0.231018 4.178986,-2.893982c-0.692993,-2.39801 -3.175995,-1.246033 -4.725983,-1.731018c-0.728027,-0.351013 -1.284027,-1.289978 -0.683014,-2.01001zm-2.888,2.332031c-2.38501,-0.663025 -3.628998,2.230957 -3.614014,4.174011c-0.373993,2.376953 2.457001,3.471985 2.491028,5.59198c-0.442017,2.796997 -4.580017,1.59198 -4.519012,-0.856018c-0.386993,-2.688965 1.371002,-5.737 -0.483002,-8.15802c-2.700989,-0.859985 -0.790009,-4.566956 1.56601,-3.231995c1.673981,-0.073975 4.981995,-0.031982 4.55899,2.480042zm-13.776001,4.348999c-0.990997,2.096008 -1.873993,-2.23999 -0.328003,-0.696045c0.132996,0.205017 0.360992,0.422058 0.328003,0.696045zm-1.112,4.708984c2.233002,-1.395996 1.528992,-4.372986 2.259003,-6.53302c0.126007,-2.352966 -4.330994,-2.485962 -4.157013,-0.04895c0.386017,2.213989 -0.52298,5.220947 1.89801,6.58197zm4.421997,-4.708984c0.369019,2.778992 -0.877991,6.362 -3.923004,6.973999c-2.631989,0.256958 -5.093994,-2.307007 -4.785004,-4.921997c-0.552002,-3.025024 -0.161987,-6.725037 2.51001,-8.669006c2.681,-1.301025 6.113007,1.072998 6.007996,4.015015c0.143005,0.859985 0.178009,1.732971 0.190002,2.60199zm-14.359009,0c-0.990997,2.096008 -1.873993,-2.23999 -0.327972,-0.696045c0.132996,0.205017 0.359985,0.422058 0.327972,0.696045zm-1.112,4.708984c2.233002,-1.395996 1.529022,-4.372986 2.259003,-6.53302c0.125,-2.352966 -4.330994,-2.485962 -4.15799,-0.04895c0.385986,2.213989 -0.52301,5.220947 1.898987,6.58197zm4.421021,-4.708984c0.369995,2.778992 -0.878021,6.362 -3.921997,6.973999c-2.632019,0.256958 -5.094025,-2.307007 -4.785004,-4.921997c-0.553009,-3.025024 -0.162018,-6.725037 2.509979,-8.669006c2.680023,-1.301025 6.113007,1.072998 6.007019,4.015015c0.143982,0.859985 0.178009,1.732971 0.190002,2.60199z" id="flowRoot7779"/>
   <path d="m67.399002,446.513c1.715996,-0.949036 4.083,-0.952026 5.581001,0.416992c1.281998,1.304993 1.454994,3.330994 1.033997,5.03302c-0.389999,1.46698 -1.685997,2.672974 -3.219002,2.820984c-1.049995,0.162964 -2.139999,-0.02002 -3.103996,-0.458984c-0.524002,-0.473999 -0.388,-1.65802 -0.081001,-1.983032c0.999001,0.653015 2.412003,1.002991 3.453003,0.242981c0.876999,-0.698975 0.977997,-1.955994 0.822998,-2.990967c-0.131004,-0.880005 -0.761002,-1.716003 -1.678001,-1.859009c-0.743004,-0.154968 -1.529999,0.005981 -2.189003,0.369019c-0.653,0.745972 -0.735001,-0.328003 -0.619995,-0.833008c0.002998,-0.252991 0.004997,-0.505005 0,-0.757996zm-9.389,0c1.715996,-0.949036 4.083,-0.952026 5.581001,0.416992c1.281998,1.304993 1.454994,3.330994 1.033997,5.03302c-0.390999,1.46698 -1.685997,2.672974 -3.219002,2.820984c-1.049995,0.162964 -2.139999,-0.02002 -3.103996,-0.458984c-0.523903,-0.473999 -0.387802,-1.65802 -0.081001,-1.983032c0.999001,0.653015 2.412003,1.002991 3.453003,0.242981c0.876999,-0.698975 0.977997,-1.955994 0.822998,-2.990967c-0.131004,-0.880005 -0.761002,-1.716003 -1.678001,-1.859009c-0.743004,-0.154968 -1.530998,0.005981 -2.190002,0.369019c-0.652199,0.745972 -0.7342,-0.328003 -0.618996,-0.833008c0.001999,-0.252991 0.004997,-0.505005 0,-0.757996z" id="flowRoot7815"/>
   <path d="m205.682999,446.513c1.714996,-0.949036 4.082001,-0.952026 5.580002,0.416992c1.281998,1.304993 1.455002,3.330994 1.033997,5.03302c-0.389999,1.46698 -1.686005,2.672974 -3.218002,2.820984c-1.050995,0.162964 -2.140991,-0.02002 -3.104996,-0.458984c-0.522995,-0.473999 -0.386993,-1.65802 -0.080002,-1.983032c0.998001,0.653015 2.412003,1.002991 3.453003,0.242981c0.876999,-0.698975 0.977005,-1.955994 0.822006,-2.990967c-0.131012,-0.880005 -0.761002,-1.716003 -1.678009,-1.859009c-0.742004,-0.154968 -1.529999,0.005981 -2.188995,0.369019c-0.653,0.745972 -0.735001,-0.328003 -0.619995,-0.833008c0.002991,-0.252991 0.00499,-0.505005 0.000992,-0.757996zm-9.389999,0c1.716003,-0.949036 4.083008,-0.952026 5.580994,0.416992c1.282013,1.304993 1.455002,3.330994 1.034012,5.03302c-0.389999,1.46698 -1.686005,2.672974 -3.218002,2.820984c-1.050995,0.162964 -2.141006,-0.02002 -3.104996,-0.458984c-0.524002,-0.473999 -0.387009,-1.65802 -0.080002,-1.983032c0.998001,0.653015 2.412003,1.002991 3.451996,0.242981c0.876999,-0.698975 0.977997,-1.955994 0.822998,-2.990967c-0.130997,-0.880005 -0.761002,-1.716003 -1.677994,-1.859009c-0.743011,-0.154968 -1.529999,0.005981 -2.189011,0.369019c-0.653,0.745972 -0.735001,-0.328003 -0.619995,-0.833008c0.003006,-0.252991 0.005005,-0.505005 0,-0.757996z" id="path7830"/>
  </g>
 </g>
</svg>